<svg xmlns="http://www.w3.org/2000/svg" baseProfile="tiny" version="1.2" viewBox="0 0 250 75" class="c-logo__symbol">
    <g id="Layer_1">
        <g>
            <g>
                <path fill="#373636" d="M81.37,21.29l-6.38,18.52H71.2l-6.38-18.52h3.43l4.84,14.06l4.84-14.06H81.37z"/>
                <path fill="#373636" d="M83.59,19.77l2.82-0.28h0.42v20.04h-3.24V19.77z"/>
                <path fill="#373636" d="M101.29,39.81c-0.54,0-1.07-0.08-1.61-0.32c-0.54-0.22-1.08-0.59-1.62-1.19
				c-0.57,0.43-1.07,0.8-1.66,1.07c-0.61,0.28-1.29,0.44-2.21,0.44c-0.66,0-1.4-0.1-2.1-0.35c-0.71-0.25-1.36-0.66-1.84-1.34
				c-0.48-0.68-0.79-1.62-0.79-2.89c0-1.26,0.3-2.27,1.08-2.95c0.78-0.68,2.03-1.05,3.96-1.05c0.77,0,1.67,0,2.95,0.11v-0.72
				c0-1-0.32-1.69-0.83-2.1c-0.51-0.42-1.2-0.58-1.98-0.58c-0.61,0-1.29,0.11-1.95,0.29c-0.66,0.18-1.33,0.42-1.9,0.69l-0.76-2.82
				c1.51-0.72,3.43-1.22,5.25-1.22c1.43,0,2.75,0.3,3.75,1.05c0.98,0.75,1.61,1.92,1.61,3.68v5.34c0,0.68,0.22,1.16,0.61,1.5
				c0.37,0.33,0.9,0.53,1.52,0.65L101.29,39.81z M97.43,33.72c-1.51,0-2.68-0.03-3.49,0.17c-0.8,0.19-1.25,0.61-1.25,1.45
				c0,1.18,0.84,1.83,2.02,1.83c0.4,0,1.08-0.08,1.66-0.44c0.58-0.36,1.05-0.98,1.05-2.13V33.72z"/>
                <path fill="#373636" d="M115.42,39.81c-0.54,0-1.06-0.08-1.61-0.32c-0.54-0.22-1.08-0.59-1.62-1.19
				c-0.57,0.43-1.06,0.8-1.66,1.07c-0.61,0.28-1.29,0.44-2.21,0.44c-0.66,0-1.4-0.1-2.1-0.35c-0.71-0.25-1.36-0.66-1.84-1.34
				c-0.48-0.68-0.79-1.62-0.79-2.89c0-1.26,0.3-2.27,1.08-2.95c0.77-0.68,2.03-1.05,3.96-1.05c0.78,0,1.68,0,2.95,0.11v-0.72
				c0-1-0.32-1.69-0.83-2.1c-0.51-0.42-1.2-0.58-1.98-0.58c-0.61,0-1.29,0.11-1.95,0.29c-0.66,0.18-1.33,0.42-1.9,0.69l-0.76-2.82
				c1.51-0.72,3.43-1.22,5.25-1.22c1.43,0,2.75,0.3,3.75,1.05c0.98,0.75,1.61,1.92,1.61,3.68v5.34c0,0.68,0.22,1.16,0.61,1.5
				c0.37,0.33,0.9,0.53,1.52,0.65L115.42,39.81z M111.56,33.72c-1.51,0-2.68-0.03-3.49,0.17c-0.8,0.19-1.25,0.61-1.25,1.45
				c0,1.18,0.84,1.83,2.02,1.83c0.4,0,1.08-0.08,1.66-0.44c0.58-0.36,1.05-0.98,1.05-2.13V33.72z"/>
                <path fill="#373636" d="M118.83,25.16h2.74l0.32,1.12c1.33-0.89,2.98-1.4,4.58-1.4c1.37,0,2.68,0.37,3.64,1.2
				c0.96,0.83,1.58,2.12,1.58,3.9v9.54h-3.24v-8.58c0-1.07-0.39-1.81-0.98-2.28c-0.6-0.47-1.43-0.66-2.27-0.66
				c-1.11,0-2.24,0.33-3.13,0.89v10.64h-3.24V25.16z"/>
                <path fill="#373636" d="M147.19,39.53h-2.45l-0.58-1.08c-1.11,0.83-2.27,1.36-3.86,1.36c-2.06,0-3.6-0.83-4.61-2.1
				c-1.01-1.27-1.51-2.99-1.51-4.76c0-2.71,0.82-4.73,2.17-6.08c1.36-1.33,3.27-1.98,5.48-1.98c0.65,0,1.36,0.04,2.12,0.14v-5.26
				l2.74-0.28h0.5V39.53z M143.95,28.21c-0.82-0.21-1.65-0.3-2.3-0.3c-1.23,0-2.27,0.36-2.99,1.11c-0.72,0.75-1.13,1.85-1.13,3.35
				c0,1.09,0.3,2.16,0.89,2.98c0.58,0.82,1.44,1.36,2.59,1.36c0.98,0,2.08-0.35,2.95-0.89V28.21z"/>
                <path fill="#373636" d="M161.31,35.81v3.14c-0.65,0.32-1.34,0.51-2.05,0.65c-0.72,0.14-1.43,0.21-2.04,0.21
				c-1.99,0-3.83-0.62-5.19-1.85c-1.36-1.23-2.21-3.11-2.21-5.6c0-2.42,0.8-4.28,2.02-5.55c1.2-1.26,2.82-1.91,4.44-1.91
				c0.46,0,1.27,0.06,2.12,0.35c0.85,0.29,1.77,0.84,2.46,1.8c0.69,0.95,1.18,2.37,1.18,4.36v2.16h-8.72
				c0.26,1.16,0.86,1.95,1.63,2.45c0.76,0.5,1.69,0.71,2.62,0.71c1.22,0,2.51-0.35,3.61-0.94L161.31,35.81z M159.08,30.99
				c-0.1-1.05-0.44-1.8-0.94-2.3c-0.5-0.48-1.13-0.69-1.76-0.69c-0.66,0-1.34,0.22-1.9,0.71c-0.57,0.5-1.02,1.25-1.2,2.28H159.08z"
                />
                <path fill="#373636" d="M172.97,28.73c-0.82-0.5-1.62-0.72-2.44-0.72c-1.05,0-2.02,0.39-2.89,1.05v10.46h-3.24V25.16h2.74
				l0.33,1.18c1-0.84,2.21-1.45,3.65-1.45c0.39,0,0.93,0.03,1.45,0.12c0.53,0.1,1.04,0.24,1.41,0.44L172.97,28.73z"/>
                <path fill="#373636" d="M185.34,35.81v3.14c-0.65,0.32-1.34,0.51-2.05,0.65c-0.72,0.14-1.43,0.21-2.04,0.21
				c-1.99,0-3.83-0.62-5.19-1.85c-1.36-1.23-2.21-3.11-2.21-5.6c0-2.42,0.8-4.28,2.02-5.55c1.2-1.26,2.82-1.91,4.44-1.91
				c0.46,0,1.27,0.06,2.12,0.35c0.85,0.29,1.77,0.84,2.46,1.8c0.69,0.95,1.18,2.37,1.18,4.36v2.16h-8.72
				c0.26,1.16,0.86,1.95,1.63,2.45c0.76,0.5,1.69,0.71,2.62,0.71c1.22,0,2.51-0.35,3.61-0.94L185.34,35.81z M183.11,30.99
				c-0.1-1.05-0.44-1.8-0.94-2.3c-0.5-0.48-1.13-0.69-1.76-0.69c-0.66,0-1.34,0.22-1.9,0.71c-0.57,0.5-1.02,1.25-1.2,2.28H183.11z"
                />
                <path fill="#373636" d="M188.43,25.16h2.74l0.32,1.12c1.33-0.89,2.98-1.4,4.58-1.4c1.37,0,2.68,0.37,3.64,1.2
				c0.96,0.83,1.58,2.12,1.58,3.9v9.54h-3.24v-8.58c0-1.07-0.39-1.81-0.98-2.28c-0.6-0.47-1.43-0.66-2.27-0.66
				c-1.11,0-2.24,0.33-3.13,0.89v10.64h-3.24V25.16z"/>
            </g>
            <g>
                <path fill="#373636" d="M76.45,52.17l-2.81,8.16h-1.63l-2.8-8.16h1.26l2.36,6.86l2.36-6.86H76.45z"/>
                <path fill="#373636" d="M83.6,56.56h-5.08c0.06,0.94,0.39,1.64,0.87,2.11c0.48,0.46,1.12,0.69,1.82,0.69
				c0.73,0,1.45-0.2,2.2-0.58l0.02,0.01v1.12c-0.85,0.42-1.59,0.58-2.34,0.58c-1.01,0-1.96-0.34-2.66-1.04
				c-0.69-0.71-1.13-1.78-1.13-3.29c0-1.16,0.27-2.21,0.84-2.95c0.57-0.74,1.44-1.19,2.66-1.19c0.84,0,1.42,0.21,1.84,0.55
				c0.41,0.34,0.65,0.8,0.79,1.31c0.13,0.51,0.17,1.07,0.17,1.58V56.56z M82.41,55.46c-0.01-0.63-0.09-1.2-0.34-1.63
				c-0.24-0.42-0.64-0.68-1.28-0.68c-0.62,0-1.12,0.24-1.49,0.65c-0.38,0.41-0.62,0.99-0.72,1.66H82.41z"/>
                <path fill="#373636" d="M85.78,52.17h0.82l0.28,0.93c0.6-0.7,1.25-1.08,2-1.08c0.2,0,0.44,0.02,0.68,0.07
				c0.24,0.05,0.48,0.13,0.67,0.21l-0.42,1.09c-0.31-0.15-0.79-0.25-1.12-0.25c-0.72,0-1.27,0.46-1.69,1.09v6.1h-1.22V52.17z"/>
                <path fill="#373636" d="M91.75,49.11l1.14-0.16h0.08v3.78c0.57-0.44,1.25-0.72,2.1-0.72c1.07,0,1.95,0.46,2.56,1.2
				c0.61,0.75,0.96,1.8,0.96,2.99c0,1.16-0.32,2.22-1,3c-0.68,0.79-1.71,1.28-3.11,1.28c-1.01,0-1.97-0.27-2.73-0.58V49.11z
				 M92.97,59.12c0.53,0.21,1.06,0.25,1.6,0.25c0.82,0,1.52-0.31,2.02-0.87c0.5-0.56,0.79-1.38,0.79-2.4c0-0.81-0.18-1.54-0.58-2.08
				c-0.4-0.53-1.01-0.87-1.89-0.87c-0.82,0-1.52,0.29-1.93,0.89V59.12z"/>
                <path fill="#373636" d="M106.14,56.56h-5.08c0.06,0.94,0.39,1.64,0.87,2.11s1.12,0.69,1.82,0.69c0.73,0,1.45-0.2,2.2-0.58
				l0.02,0.01v1.12c-0.85,0.42-1.59,0.58-2.34,0.58c-1.01,0-1.96-0.34-2.66-1.04c-0.69-0.71-1.13-1.78-1.13-3.29
				c0-1.16,0.27-2.21,0.84-2.95c0.57-0.74,1.44-1.19,2.66-1.19c0.84,0,1.42,0.21,1.84,0.55c0.41,0.34,0.65,0.8,0.79,1.31
				c0.13,0.51,0.17,1.07,0.17,1.58V56.56z M104.95,55.46c-0.01-0.63-0.09-1.2-0.34-1.63c-0.24-0.42-0.64-0.68-1.28-0.68
				c-0.62,0-1.12,0.24-1.49,0.65c-0.38,0.41-0.62,0.99-0.72,1.66H104.95z"/>
                <path fill="#373636" d="M113.57,56.56h-5.08c0.06,0.94,0.39,1.64,0.87,2.11s1.12,0.69,1.82,0.69c0.73,0,1.45-0.2,2.2-0.58
				l0.02,0.01v1.12c-0.85,0.42-1.59,0.58-2.34,0.58c-1.01,0-1.96-0.34-2.66-1.04c-0.69-0.71-1.13-1.78-1.13-3.29
				c0-1.16,0.27-2.21,0.84-2.95c0.57-0.74,1.44-1.19,2.66-1.19c0.84,0,1.42,0.21,1.84,0.55c0.41,0.34,0.65,0.8,0.79,1.31
				c0.13,0.51,0.17,1.07,0.17,1.58V56.56z M112.38,55.46c-0.01-0.63-0.09-1.2-0.34-1.63c-0.24-0.42-0.64-0.68-1.28-0.68
				c-0.62,0-1.12,0.24-1.49,0.65c-0.38,0.41-0.62,0.99-0.72,1.66H112.38z"/>
                <path fill="#373636" d="M115.34,49.11l1.13-0.16h0.08v11.38h-1.21V49.11z"/>
                <path fill="#373636" d="M125.27,60.33h-0.77l-0.25-0.72c-0.62,0.53-1.35,0.87-2.29,0.87c-1.07,0-1.95-0.5-2.56-1.29
				c-0.61-0.79-0.96-1.87-0.96-3.06c0-1.16,0.33-2.18,1.01-2.92c0.68-0.75,1.7-1.2,3.1-1.2c0.53,0,1.03,0.07,1.51,0.16v-3.07
				l1.14-0.16h0.08V60.33z M124.05,53.46c-0.55-0.21-1.08-0.32-1.59-0.32c-0.82,0-1.52,0.26-2.01,0.78c-0.5,0.52-0.79,1.3-0.79,2.33
				c0,0.81,0.18,1.59,0.58,2.16c0.4,0.57,1.01,0.95,1.89,0.95c0.82,0,1.5-0.28,1.93-0.89V53.46z"/>
                <path fill="#373636" d="M127.78,49.95c0-0.23,0.09-0.44,0.25-0.6c0.15-0.15,0.36-0.24,0.59-0.24c0.23,0,0.44,0.09,0.6,0.24
				c0.16,0.16,0.25,0.37,0.25,0.6c0,0.23-0.09,0.43-0.25,0.58c-0.16,0.16-0.37,0.25-0.6,0.25c-0.23,0-0.44-0.09-0.59-0.25
				C127.88,50.38,127.78,50.18,127.78,49.95z M128.02,52.17h1.21v8.16h-1.21V52.17z"/>
                <path fill="#373636" d="M131.99,52.17h0.82l0.23,0.75c0.34-0.22,0.75-0.45,1.18-0.62c0.43-0.17,0.88-0.29,1.26-0.29
				c0.78,0,1.49,0.2,2.03,0.68c0.53,0.49,0.86,1.26,0.86,2.41v5.22h-1.22v-5.15c0-0.79-0.2-1.3-0.52-1.61
				c-0.32-0.31-0.77-0.43-1.26-0.43c-0.38,0-0.76,0.1-1.13,0.25c-0.37,0.15-0.71,0.35-1.02,0.53v6.4h-1.22V52.17z"/>
                <path fill="#373636" d="M144.01,58.63c1.12,0,1.95,0.26,2.49,0.68c0.53,0.42,0.8,1.01,0.8,1.61c0,0.89-0.54,1.68-1.34,2.25
				c-0.79,0.57-1.85,0.92-2.86,0.92c-0.93,0-1.69-0.29-2.21-0.76c-0.52-0.46-0.81-1.12-0.81-1.84c0-0.66,0.35-1.45,0.97-2.07
				c-0.22-0.13-0.38-0.34-0.5-0.58c-0.11-0.24-0.17-0.5-0.17-0.73c0-0.44,0.2-0.94,0.59-1.42c-0.22-0.23-0.39-0.54-0.5-0.89
				c-0.11-0.34-0.17-0.71-0.17-1.05c0-0.78,0.31-1.45,0.84-1.94c0.53-0.49,1.29-0.78,2.18-0.78c0.6,0,1.14,0.13,1.58,0.38
				c0.35-0.26,0.74-0.47,1.1-0.61c0.36-0.14,0.71-0.21,0.98-0.21l0.36,1.03c-0.43,0.07-1,0.25-1.53,0.59
				c0.31,0.44,0.47,0.95,0.47,1.52c0,0.78-0.31,1.49-0.85,2.02c-0.54,0.53-1.3,0.86-2.19,0.86c-0.57,0-1.08-0.14-1.51-0.35
				c-0.18,0.23-0.28,0.46-0.28,0.67c0,0.41,0.35,0.73,1.01,0.73H144.01z M142,59.67c-0.44,0.5-0.72,1.14-0.72,1.7
				c0,0.48,0.13,0.9,0.45,1.19c0.31,0.29,0.81,0.46,1.53,0.46c0.82,0,1.52-0.27,2.02-0.65c0.5-0.38,0.78-0.88,0.78-1.38
				c0-0.61-0.35-0.94-0.92-1.12c-0.57-0.18-1.36-0.2-2.22-0.2H142z M143.29,53.1c-0.6,0-1.07,0.23-1.38,0.55
				c-0.31,0.32-0.47,0.75-0.47,1.16c0,0.41,0.17,0.83,0.48,1.16c0.31,0.32,0.78,0.54,1.4,0.54c0.6,0,1.06-0.22,1.37-0.54
				c0.31-0.31,0.46-0.73,0.46-1.14c0-0.41-0.16-0.84-0.46-1.17C144.36,53.32,143.9,53.1,143.29,53.1z"/>
                <path fill="#373636" d="M164.43,52.17l-2.59,8.16h-1.51l-1.81-6.21l-1.82,6.21h-1.52l-2.58-8.16h1.18l2.15,6.81l2.02-6.81h1.12
				l2.02,6.81l2.16-6.81H164.43z"/>
                <path fill="#373636" d="M171.58,56.56h-5.08c0.06,0.94,0.39,1.64,0.87,2.11c0.48,0.46,1.12,0.69,1.82,0.69
				c0.73,0,1.45-0.2,2.2-0.58l0.02,0.01v1.12c-0.85,0.42-1.59,0.58-2.34,0.58c-1.01,0-1.96-0.34-2.66-1.04
				c-0.69-0.71-1.13-1.78-1.13-3.29c0-1.16,0.27-2.21,0.84-2.95c0.57-0.74,1.44-1.19,2.66-1.19c0.84,0,1.42,0.21,1.84,0.55
				c0.41,0.34,0.65,0.8,0.79,1.31c0.13,0.51,0.17,1.07,0.17,1.58V56.56z M170.39,55.46c-0.01-0.63-0.09-1.2-0.34-1.63
				c-0.24-0.42-0.64-0.68-1.28-0.68c-0.62,0-1.12,0.24-1.49,0.65c-0.38,0.41-0.62,0.99-0.72,1.66H170.39z"/>
                <path fill="#373636" d="M173.76,52.17h0.82l0.28,0.93c0.61-0.7,1.25-1.08,2-1.08c0.2,0,0.44,0.02,0.68,0.07
				c0.24,0.05,0.48,0.13,0.67,0.21l-0.42,1.09c-0.31-0.15-0.79-0.25-1.12-0.25c-0.71,0-1.27,0.46-1.69,1.09v6.1h-1.22V52.17z"/>
                <path fill="#373636" d="M185.41,60.49c-0.41-0.02-0.89-0.28-1.37-0.66c-0.48-0.37-0.98-0.87-1.42-1.38
				c-0.45-0.5-0.86-1.02-1.15-1.44c-0.15-0.2-0.27-0.38-0.35-0.53c-0.09-0.15-0.15-0.24-0.16-0.29v4.14h-1.22V49.17l1.14-0.21h0.08
				v7.09l3.24-3.87h1.56l-3.32,3.95c0.04,0.18,0.3,0.56,0.68,1c0.38,0.45,0.86,0.96,1.37,1.39c0.5,0.43,1.02,0.78,1.44,0.9
				L185.41,60.49z"/>
                <path fill="#373636" d="M186.45,52.17h0.9v-1.46l1.14-0.21h0.08v1.67h2.26v1.13h-2.26v4.01c0,0.75,0.17,1.25,0.42,1.58
				c0.26,0.33,0.63,0.47,1.04,0.47c0.47,0,1-0.18,1.53-0.49l0.33,1.12c-0.69,0.31-1.38,0.5-2.01,0.5c-0.71,0-1.34-0.22-1.8-0.73
				c-0.46-0.5-0.74-1.3-0.74-2.44v-4.01h-0.9V52.17z"/>
            </g>

            <rect x="54.68" y="-2.27" transform="matrix(0.9467 -0.322 0.322 0.9467 -10.4656 19.8897)" fill="#373636"
                  width="0.42" height="87.7"/>
            <g>
                <path fill="#373636" d="M40.75,41.41c-2.04-1.55-2.99,0.01-4.27-0.09c-1.08-0.09-2.1-1.84-2.94-1.42
				c-1.6,0.81,0.64,3.7,1.62,4.28c0.87,0.52,1.96,1,2.22,1.12c1.29,0.6,1.8,1.51,1.96,2.93c0.04,0.33,0,1.07-0.08,1.42
				c-0.59,2.49-4.95,4.76-7.46,3.04c-1.18-0.81-2.26-1.85-2.63-3.7c-0.67-3.28-3.04-5.68-3.8-8.89c-0.46-1.95-0.8-4-1.31-5.96
				c-0.52-2.03-1.05-4.03-1.47-5.87c-0.39-1.71-1.2-4.27-1.79-5.83c-2.39-6.25-3.48-5.8-3.48-5.8s0.87,1.74,4.04,17.06
				c0.13,0.63,1.28,7.38,2.12,9.6c0.3,0.8,0.83,2.5,1.17,3.25c1.01,2.2,3.67,5.52,3.85,8.52c0.1,1.73,0.3,3.17,0.34,4.48
				c0.03,0.38,0.2,1.95,0.45,2.64c0.65,1.83,5.9,7.73,11.47,7.73v-4.47c-5.54,0-10.75-3.1-10.88-3.43
				c-0.08-0.15,0.29-2.26,0.66-3.21c0.73-1.82,2.09-3.49,4.5-3.67c2.68-0.19,4.3,0.59,5.72,0.59L40.75,41.41z"/>
                <path fill="#373636" d="M16.7,25.17c-0.2,3.35-5.39,7.93-7.01,10.87c-0.8,1.45-1.77,3.93-2.02,5.36c-0.69,4,0.19,6.48,1.16,8.82
				c1.72,4.11-0.23,5.62,1.11,4.79c1.66-1.35,1.41-4.51,1.29-6.48c-0.1-1.6-0.2-3.42,0.04-5.32c0.46-3.57,2.62-7.39,4.46-10.07
				C17.91,29.95,17.12,26.65,16.7,25.17"/>
                <path fill="#373636" d="M17.74,34.69c0,0,0.55,2.65-1.79,9.48c-6.12,17.85,5.58,19.54,8.91,23.74c0,0,1.29-1.82-4.02-7.64
				c-1.94-2.13-3.69-6.81-2.16-13.51C20.88,37.07,17.74,34.69,17.74,34.69"/>
                <path fill="#373636" d="M6.16,22.98c-0.28-1.05-0.37-2-0.3-2.84c0.28-4.2,4.09-5.89,5.04-6.52c0,0,1.71-1.17,1.93-2.36
				c0,0,1.75,4.41-2.27,6.94C8.52,19.5,7.14,21,6.16,22.98"/>
                <path fill="#373636" d="M15.77,18.93c0.22,0.43,1.8,2.74-4.67,8.07c-6.45,5.33-4.44,9.14-4.44,9.14s-6.89-3.83,1.05-10.45
				c7.93-6.62,6.31-7.96,6.31-7.96S15.15,17.68,15.77,18.93"/>
                <path fill="#373636" d="M24.16,20.97c1.12,0.15,1.83,3.63,4.41,4.39c1.9,0.55,3.92,0.25,4.37,1.4c-0.87,0.46-0.18,2,0.69,1.75
				C34.36,26.46,34.72,18.59,24.16,20.97z M27.64,22.54c0.09-0.25,0.23-0.05,0.51-0.23c0.3-0.29,0.61-0.75,1.1-0.91
				c0.35-0.11,0.83-0.06,1.16,0.07c0.22,0.05,0.09,0.62-0.08,0.76c-0.35,0.26-1.38-0.17-1.38,0.61c0.04,1.27,1.71-0.04,2.59,0
				C31.98,25.93,26.88,25.08,27.64,22.54z"/>
            </g>
        </g>
    </g>
</svg>
